<mxfile host="app.diagrams.net" modified="2023-11-26T15:55:41.244Z" agent="Mozilla/5.0 (Macintosh; Intel Mac OS X 10_15_7) AppleWebKit/537.36 (KHTML, like Gecko) Chrome/119.0.0.0 Safari/537.36" version="22.1.4" etag="jXt1nP18oTteLA8Ez8bc" type="github">
  <diagram name="Page-1" id="8qT8SsWpENYq4ftOqoeq">
    <mxGraphModel>
      <root>
        <mxCell id="0" />
        <mxCell id="1" parent="0" />
      </root>
    </mxGraphModel>
  </diagram>
</mxfile>
